<?xml version="1.0" encoding="UTF-8" standalone="no"?>
<svg width="588.786mm" height="291.042mm"
 viewBox="0 0 1669 825"
 xmlns="http://www.w3.org/2000/svg" xmlns:xlink="http://www.w3.org/1999/xlink"  version="1.2" baseProfile="tiny">
<title>Qt SVG Document</title>
<desc>Generated with Qt</desc>
<defs>
</defs>
<g fill="none" stroke="black" stroke-width="1" fill-rule="evenodd" stroke-linecap="square" stroke-linejoin="bevel" >

<g fill="#000000" fill-opacity="1" stroke="none" transform="matrix(1,0,0,1,0,0)"
font-family="MS Shell Dlg 2" font-size="8.25" font-weight="400" font-style="normal" 
>
<path vector-effect="none" fill-rule="evenodd" d="M0,0 L1669,0 L1669,825 L0,825 L0,0"/>
</g>

<g fill="none" stroke="#000000" stroke-opacity="1" stroke-width="1" stroke-linecap="square" stroke-linejoin="bevel" transform="matrix(1,0,0,1,0,0)"
font-family="MS Shell Dlg 2" font-size="8.25" font-weight="400" font-style="normal" 
>
</g>

<g fill="#000000" fill-opacity="1" stroke="#000000" stroke-opacity="1" stroke-width="1" stroke-linecap="butt" stroke-linejoin="miter" stroke-miterlimit="2" transform="matrix(1,0,0,1,0,0)"
font-family="MS Shell Dlg 2" font-size="8.25" font-weight="400" font-style="normal" 
>
</g>

<g fill="#000000" fill-opacity="1" stroke="#000000" stroke-opacity="1" stroke-width="1" stroke-linecap="butt" stroke-linejoin="miter" stroke-miterlimit="2" transform="matrix(1,0,0,1,0,0)"
font-family="MS Shell Dlg 2" font-size="8.25" font-weight="400" font-style="normal" 
>
</g>

<g fill="#000000" fill-opacity="1" stroke="#000000" stroke-opacity="1" stroke-width="1" stroke-linecap="square" stroke-linejoin="bevel" transform="matrix(1,0,0,1,0,0)"
font-family="MS Shell Dlg 2" font-size="8.25" font-weight="400" font-style="normal" 
>
</g>

<g fill="none" stroke="#000000" stroke-opacity="1" stroke-width="1" stroke-linecap="square" stroke-linejoin="bevel" transform="matrix(1,0,0,1,151.03,338.259)"
font-family="MS Shell Dlg 2" font-size="8.25" font-weight="400" font-style="normal" 
>
<path vector-effect="non-scaling-stroke" fill-rule="evenodd" d="M3.5967,0 C3.5967,-1.9864 1.9864,-3.5967 0,-3.5967 C-1.9864,-3.5967 -3.5967,-1.9864 -3.5967,0 C-3.5967,1.9864 -1.9864,3.5967 0,3.5967 C1.9864,3.5967 3.5967,1.9864 3.5967,0 "/>
</g>

<g fill="#000000" fill-opacity="1" stroke="#000000" stroke-opacity="1" stroke-width="1" stroke-linecap="square" stroke-linejoin="bevel" transform="matrix(1,0,0,1,0,0)"
font-family="MS Shell Dlg 2" font-size="8.25" font-weight="400" font-style="normal" 
>
</g>

<g fill="none" stroke="#000000" stroke-opacity="1" stroke-width="1" stroke-linecap="square" stroke-linejoin="bevel" transform="matrix(1,0,0,1,122.256,338.259)"
font-family="MS Shell Dlg 2" font-size="8.25" font-weight="400" font-style="normal" 
>
<path vector-effect="non-scaling-stroke" fill-rule="evenodd" d="M3.5967,0 C3.5967,-1.9864 1.9864,-3.5967 0,-3.5967 C-1.9864,-3.5967 -3.5967,-1.9864 -3.5967,0 C-3.5967,1.9864 -1.9864,3.5967 0,3.5967 C1.9864,3.5967 3.5967,1.9864 3.5967,0 "/>
</g>

<g fill="#000000" fill-opacity="1" stroke="#000000" stroke-opacity="1" stroke-width="1" stroke-linecap="square" stroke-linejoin="bevel" transform="matrix(1,0,0,1,0,0)"
font-family="MS Shell Dlg 2" font-size="8.25" font-weight="400" font-style="normal" 
>
</g>

<g fill="none" stroke="#000000" stroke-opacity="1" stroke-width="1" stroke-linecap="square" stroke-linejoin="bevel" transform="matrix(1,0,0,1,93.4827,338.259)"
font-family="MS Shell Dlg 2" font-size="8.25" font-weight="400" font-style="normal" 
>
<path vector-effect="non-scaling-stroke" fill-rule="evenodd" d="M3.5967,0 C3.5967,-1.9864 1.9864,-3.5967 0,-3.5967 C-1.9864,-3.5967 -3.5967,-1.9864 -3.5967,0 C-3.5967,1.9864 -1.9864,3.5967 0,3.5967 C1.9864,3.5967 3.5967,1.9864 3.5967,0 "/>
</g>

<g fill="#000000" fill-opacity="1" stroke="#000000" stroke-opacity="1" stroke-width="1" stroke-linecap="square" stroke-linejoin="bevel" transform="matrix(1,0,0,1,0,0)"
font-family="MS Shell Dlg 2" font-size="8.25" font-weight="400" font-style="normal" 
>
</g>

<g fill="none" stroke="#000000" stroke-opacity="1" stroke-width="1" stroke-linecap="square" stroke-linejoin="bevel" transform="matrix(1,0,0,1,183.104,338.259)"
font-family="MS Shell Dlg 2" font-size="8.25" font-weight="400" font-style="normal" 
>
<path vector-effect="non-scaling-stroke" fill-rule="evenodd" d="M3.5967,0 C3.5967,-1.9864 1.9864,-3.5967 0,-3.5967 C-1.9864,-3.5967 -3.5967,-1.9864 -3.5967,0 C-3.5967,1.9864 -1.9864,3.5967 0,3.5967 C1.9864,3.5967 3.5967,1.9864 3.5967,0 "/>
</g>

<g fill="#000000" fill-opacity="1" stroke="#000000" stroke-opacity="1" stroke-width="1" stroke-linecap="square" stroke-linejoin="bevel" transform="matrix(1,0,0,1,0,0)"
font-family="MS Shell Dlg 2" font-size="8.25" font-weight="400" font-style="normal" 
>
</g>

<g fill="none" stroke="#000000" stroke-opacity="1" stroke-width="1" stroke-linecap="square" stroke-linejoin="bevel" transform="matrix(1,0,0,1,269.409,338.259)"
font-family="MS Shell Dlg 2" font-size="8.25" font-weight="400" font-style="normal" 
>
<path vector-effect="non-scaling-stroke" fill-rule="evenodd" d="M3.5967,0 C3.5967,-1.9864 1.9864,-3.5967 0,-3.5967 C-1.9864,-3.5967 -3.5967,-1.9864 -3.5967,0 C-3.5967,1.9864 -1.9864,3.5967 0,3.5967 C1.9864,3.5967 3.5967,1.9864 3.5967,0 "/>
</g>

<g fill="#000000" fill-opacity="1" stroke="#000000" stroke-opacity="1" stroke-width="1" stroke-linecap="square" stroke-linejoin="bevel" transform="matrix(1,0,0,1,0,0)"
font-family="MS Shell Dlg 2" font-size="8.25" font-weight="400" font-style="normal" 
>
<polyline fill="none" vector-effect="non-scaling-stroke" points="276.914,323.872 276.914,329.267 " />
<polyline fill="none" vector-effect="non-scaling-stroke" points="276.914,329.267 262.527,329.267 " />
<polyline fill="none" vector-effect="non-scaling-stroke" points="262.527,329.267 262.527,338.259 " />
<polyline fill="none" vector-effect="non-scaling-stroke" points="262.527,338.259 194.19,338.259 " />
<polyline fill="none" vector-effect="non-scaling-stroke" points="194.19,338.259 194.19,323.872 " />
<polyline fill="none" vector-effect="non-scaling-stroke" points="194.19,323.872 79.0959,323.872 " />
<polyline fill="none" vector-effect="non-scaling-stroke" points="79.0959,323.872 79.0959,352.646 " />
<polyline fill="none" vector-effect="non-scaling-stroke" points="863.176,352.646 79.0959,352.646 " />
<polyline fill="none" vector-effect="non-scaling-stroke" points="863.176,323.872 863.176,352.646 " />
<polyline fill="none" vector-effect="non-scaling-stroke" points="863.176,323.872 276.914,323.872 " />
</g>

<g fill="none" stroke="#000000" stroke-opacity="1" stroke-width="1" stroke-linecap="square" stroke-linejoin="bevel" transform="matrix(1,0,0,1,0,0)"
font-family="MS Shell Dlg 2" font-size="8.25" font-weight="400" font-style="normal" 
>
</g>
</g>
</svg>
